<svg width="154" height="115" viewBox="0 0 154 115" fill="none" xmlns="http://www.w3.org/2000/svg">
<path d="M153.419 57.6696C153.413 68.1478 150.451 78.4222 144.859 87.367C139.266 96.3118 131.258 103.582 121.711 108.38C121.282 108.6 120.849 108.811 120.414 109.013L120.323 109.057L120.013 109.202C119.756 109.325 119.503 109.44 119.242 109.554C117.611 110.284 115.937 110.939 114.222 111.52C113.248 111.851 112.264 112.157 111.27 112.439L110.08 112.76C96.8432 116.2 82.7895 115.006 70.3603 109.387C69.851 109.154 69.3418 108.916 68.8416 108.67L67.9403 108.23C59.0196 103.669 51.4523 96.9437 45.9668 88.7018C45.39 87.8428 44.8402 86.9634 44.3174 86.0634C43.8518 85.2806 43.4011 84.4876 42.9655 83.6844C38.7317 75.6358 36.53 66.7166 36.5438 57.6696C36.5438 56.6025 36.5738 55.5413 36.6339 54.4859C37.4788 39.6598 44.2179 25.7402 55.4179 15.6877C66.6179 5.63513 81.3951 0.24279 96.6066 0.657521C111.818 1.07225 126.264 7.26133 136.871 17.9084C147.478 28.5555 153.41 42.8206 153.405 57.6696H153.419Z" fill="url(#paint0_linear_1_372)"/>
<path d="M83.5056 55.6424C83.5056 55.6424 70.4368 49.5961 69.3012 41.2763C68.1656 32.9564 68.9632 25.006 75.4751 22.7809C75.4751 22.7809 79.594 9.96703 94.1949 15.1163C108.796 20.2657 106.493 35.7268 114.474 37.5781C122.455 39.4294 137.358 31.6328 140.201 41.1443C143.045 50.6558 133.694 50.0754 127.48 58.1489C121.265 66.2225 130.864 70.4615 129.106 76.0198C127.349 81.5781 120.711 85.3994 120.711 85.3994L83.5056 55.6424Z" fill="url(#paint1_linear_1_372)"/>
<path d="M65.6104 73.8914L69.3012 83.6843H69.7023L75.4751 58.1489C71.8293 61.2666 65.6104 73.8914 65.6104 73.8914Z" fill="url(#paint2_linear_1_372)"/>
<path d="M59.1301 87.4001L56.7913 88.5478C53.8891 90.2452 49.5539 89.7615 49.5539 89.7615C51.8973 92.334 65.0922 95.245 68.801 95.1703L69.486 86.0589H61.2662L59.1301 87.4001Z" fill="url(#paint3_linear_1_372)"/>
<path d="M120.414 109L120.323 109.044L120.012 109.189C119.756 109.312 119.503 109.427 119.242 109.541C117.61 110.271 115.937 110.926 114.222 111.506C113.248 111.838 112.264 112.144 111.27 112.426L110.08 112.747C96.8432 116.186 82.7894 114.993 70.3603 109.374C69.851 109.141 69.3418 108.903 68.8416 108.657L67.9403 108.217C68.0665 104.444 68.2603 99.9282 68.5442 95.1659C68.7244 92.1889 68.9452 89.1151 69.2066 86.0633C69.2742 85.2674 69.3463 84.4759 69.4184 83.6844C70.4819 72.4359 72.1854 62.0054 74.9163 58.6898L74.9569 58.6458C75.3036 58.1802 75.7927 57.8338 76.3539 57.6564C80.297 56.7417 83.0775 56.4339 83.5146 55.6424C83.9518 54.8509 83.5146 53.2942 83.5146 53.2942L84.2988 53.1887C85.4389 53.0216 87.6516 52.6698 89.7471 52.1421C89.7603 52.1461 89.7744 52.1461 89.7876 52.1421C91.6398 51.6716 93.3928 51.0647 94.249 50.3348L96.0065 54.8948C96.0065 54.8948 109.224 53.2634 114.384 58.1665C114.416 58.1893 114.444 58.2159 114.469 58.2456C114.524 58.2936 114.575 58.345 114.623 58.3995C114.93 58.7163 115.203 59.0625 115.438 59.4329C117.119 62.0713 118.309 72.6602 119.134 84.1461C119.323 86.7845 119.494 89.5109 119.643 92.1801C119.985 98.3452 120.242 104.317 120.414 109Z" fill="url(#paint4_linear_1_372)"/>
<path opacity="0.15" d="M120.323 109.057L120.012 109.202C119.756 109.325 119.503 109.44 119.242 109.554C117.611 110.284 115.937 110.939 114.222 111.52C113.248 111.851 112.264 112.157 111.27 112.439C105.182 106.111 102.766 97.8967 102.766 97.8967L119.634 92.1801L120.323 109.057Z" fill="black"/>
<path d="M114.379 58.1489C120.486 63.9974 121.815 76.2748 120.688 85.4125C119.562 94.5502 117.471 103.108 113.127 102.844C108.782 102.58 93.7487 92.4043 87.9399 86.8549L91.3333 80.5007L103.609 85.4917V72.1896L114.379 58.1489Z" fill="url(#paint5_linear_1_372)"/>
<path d="M114.379 58.1489C120.486 63.9974 121.815 76.2748 120.688 85.4125C119.562 94.5502 117.471 103.108 113.127 102.844C108.782 102.58 93.7487 92.4043 87.9399 86.8549L91.3333 80.5007L103.609 85.4917V72.1896L114.379 58.1489Z" fill="url(#paint6_linear_1_372)"/>
<g filter="url(#filter0_d_1_372)">
<path d="M82.7981 83.6844H26.4718V86.0634H82.7981V83.6844Z" fill="url(#paint7_linear_1_372)"/>
<path d="M58.2919 54.4859H15.458L26.4718 83.6844H69.3012L58.2919 54.4859Z" fill="url(#paint8_linear_1_372)"/>
</g>
<path d="M39.3333 86.0634C39.3333 86.0634 46.7238 89.6736 51.4196 89.7615C56.1153 89.8495 61.2707 86.0634 61.2707 86.0634H39.3333Z" fill="url(#paint9_linear_1_372)"/>
<path d="M91.3334 80.5007C91.3334 80.5007 84.835 77.2994 82.0365 76.9476C79.238 76.5958 70.5496 83.6844 70.5496 83.6844H82.8071L87.9535 86.8549L91.3334 80.5007Z" fill="url(#paint10_linear_1_372)"/>
<path d="M93.6993 43.1231C93.7315 45.531 93.9121 47.9348 94.24 50.3216C91.3334 51.9178 87.931 52.7753 84.2898 53.1931L84.078 50.3216L83.9518 48.5626V48.5055C83.2499 48.4901 82.5579 48.3407 81.9149 48.0657C77.5166 46.2144 76.5702 37.1647 76.5702 37.1647C78.3322 37.0943 80.626 33.9942 80.626 33.9942C81.9103 35.9114 87.8679 39.614 91.3244 38.6202C94.7808 37.6264 94.5104 35.2474 94.5104 35.2474C95.1356 35.5047 95.6763 35.9245 96.0736 36.4611C96.471 36.9977 96.7097 37.6305 96.7636 38.2904C96.9484 40.6122 93.6993 43.1231 93.6993 43.1231Z" fill="url(#paint11_linear_1_372)"/>
<path opacity="0.15" d="M90.7475 45.678C89.9318 47.0236 86.241 49.1651 84.0824 50.3304L83.9562 48.5714C84.0914 48.5714 84.2221 48.5275 84.3483 48.5011C86.1106 48.1967 87.8021 47.5845 89.3415 46.6938C89.3599 46.6867 89.3767 46.6763 89.391 46.663C89.8536 46.3961 90.287 46.0837 90.6844 45.7307L90.7475 45.678Z" fill="black"/>
<path opacity="0.15" d="M98.5436 83.4381L108.106 87.255L103.6 84.0845V72.2116C103.6 72.2116 102.189 82.5279 98.5436 83.4381Z" fill="black"/>
<defs>
<filter id="filter0_d_1_372" x="0.458008" y="39.4859" width="107.34" height="71.5775" filterUnits="userSpaceOnUse" color-interpolation-filters="sRGB">
<feFlood flood-opacity="0" result="BackgroundImageFix"/>
<feColorMatrix in="SourceAlpha" type="matrix" values="0 0 0 0 0 0 0 0 0 0 0 0 0 0 0 0 0 0 127 0" result="hardAlpha"/>
<feOffset dx="5" dy="5"/>
<feGaussianBlur stdDeviation="10"/>
<feColorMatrix type="matrix" values="0 0 0 0 0 0 0 0 0 0 0 0 0 0 0 0 0 0 0.2 0"/>
<feBlend mode="normal" in2="BackgroundImageFix" result="effect1_dropShadow_1_372"/>
<feBlend mode="normal" in="SourceGraphic" in2="effect1_dropShadow_1_372" result="shape"/>
</filter>
<linearGradient id="paint0_linear_1_372" x1="95.2211" y1="6.82824" x2="93.3174" y2="119.235" gradientUnits="userSpaceOnUse">
<stop stop-color="white" stop-opacity="0"/>
<stop offset="1" stop-color="#64B5F6" stop-opacity="0.6"/>
</linearGradient>
<linearGradient id="paint1_linear_1_372" x1="68.8731" y1="49.6444" x2="140.733" y2="49.6444" gradientUnits="userSpaceOnUse">
<stop stop-color="#EF9A9A"/>
<stop offset="1" stop-color="#D81B60"/>
</linearGradient>
<linearGradient id="paint2_linear_1_372" x1="70.0087" y1="71.9302" x2="67.944" y2="95.9882" gradientUnits="userSpaceOnUse">
<stop stop-color="#7E57C2"/>
<stop offset="1" stop-color="#4527A0"/>
</linearGradient>
<linearGradient id="paint3_linear_1_372" x1="6027.38" y1="2199.85" x2="6007.22" y2="2701.27" gradientUnits="userSpaceOnUse">
<stop stop-color="#7E57C2"/>
<stop offset="1" stop-color="#4527A0"/>
</linearGradient>
<linearGradient id="paint4_linear_1_372" x1="17991.2" y1="12933.4" x2="21552.7" y2="19626.5" gradientUnits="userSpaceOnUse">
<stop stop-color="#7E57C2"/>
<stop offset="1" stop-color="#4527A0"/>
</linearGradient>
<linearGradient id="paint5_linear_1_372" x1="12348.3" y1="8504.8" x2="15513.5" y2="13907.1" gradientUnits="userSpaceOnUse">
<stop stop-color="#7E57C2"/>
<stop offset="1" stop-color="#4527A0"/>
</linearGradient>
<linearGradient id="paint6_linear_1_372" x1="107.219" y1="63.1091" x2="102.315" y2="104.095" gradientUnits="userSpaceOnUse">
<stop offset="0.14" stop-color="#7E57C2" stop-opacity="0"/>
<stop offset="0.26" stop-color="#724DBB" stop-opacity="0.21"/>
<stop offset="0.48" stop-color="#5F3DAF" stop-opacity="0.55"/>
<stop offset="0.66" stop-color="#5131A7" stop-opacity="0.79"/>
<stop offset="0.81" stop-color="#482AA2" stop-opacity="0.94"/>
<stop offset="0.91" stop-color="#4527A0"/>
</linearGradient>
<linearGradient id="paint7_linear_1_372" x1="26.4718" y1="84.8717" x2="82.7981" y2="84.8717" gradientUnits="userSpaceOnUse">
<stop stop-color="#D2D4D5"/>
<stop offset="1" stop-color="#AAACAE"/>
</linearGradient>
<linearGradient id="paint8_linear_1_372" x1="477.971" y1="3654.66" x2="3608.06" y2="7301.72" gradientUnits="userSpaceOnUse">
<stop stop-color="#D2D4D5"/>
<stop offset="1" stop-color="#AAACAE"/>
</linearGradient>
<linearGradient id="paint9_linear_1_372" x1="40.7303" y1="82.0926" x2="58.5987" y2="89.9425" gradientUnits="userSpaceOnUse">
<stop stop-color="#FFF8E1"/>
<stop offset="1" stop-color="#FFCC80"/>
</linearGradient>
<linearGradient id="paint10_linear_1_372" x1="6966.62" y1="2560.49" x2="7417.01" y2="3062.22" gradientUnits="userSpaceOnUse">
<stop stop-color="#FFF8E1"/>
<stop offset="1" stop-color="#FFCC80"/>
</linearGradient>
<linearGradient id="paint11_linear_1_372" x1="7116.43" y1="2809" x2="7508.9" y2="3564.02" gradientUnits="userSpaceOnUse">
<stop stop-color="#FFF8E1"/>
<stop offset="1" stop-color="#FFCC80"/>
</linearGradient>
</defs>
</svg>
