<svg width="124" height="119" viewBox="0 0 124 119" fill="none" xmlns="http://www.w3.org/2000/svg">
<path d="M118.056 57.7277C118.063 65.6164 116.36 73.4196 113.056 80.637C109.752 87.8544 104.921 94.327 98.8707 99.6398C97.1879 101.119 95.4186 102.504 93.5716 103.789C91.2012 105.437 88.7058 106.912 86.1065 108.201H86.0793C85.5253 108.481 84.9622 108.748 84.3946 109.006C84.1358 109.129 83.8815 109.242 83.6181 109.356C81.9744 110.083 80.2882 110.735 78.5597 111.313C77.1974 111.75 75.7989 112.188 74.3867 112.547C66.2407 114.635 57.7257 115.022 49.4122 113.68C48.4268 113.523 47.4551 113.343 46.4879 113.138L45.6706 112.958C43.2033 112.403 40.7763 111.692 38.4053 110.831C37.0279 110.332 35.6777 109.785 34.3549 109.19C33.8417 108.958 33.3286 108.722 32.8246 108.476C32.4795 108.31 32.1389 108.139 31.7984 107.969C22.5591 103.292 14.7754 96.3322 9.24437 87.8023C3.71332 79.2725 0.633638 69.479 0.320678 59.4246C0.00771776 49.3703 2.47273 39.4164 7.4633 30.5823C12.4539 21.7482 19.7907 14.3512 28.7224 9.14886C37.6542 3.94652 47.8599 1.12573 58.2946 0.975339C68.7293 0.824948 79.018 3.35036 88.1071 8.29297C97.1962 13.2356 104.759 20.4178 110.022 29.1041C115.284 37.7905 118.057 47.6689 118.056 57.7277Z" fill="url(#paint0_linear_1_348)"/>
<path d="M74.6044 61.8333C78.3551 65.5536 89.2803 80.032 89.2803 80.032L82.569 89.5164L76.5342 70.6744L74.6044 61.8333Z" fill="url(#paint1_linear_1_348)"/>
<path d="M86.0798 108.231C85.5258 108.511 84.9628 108.778 84.3952 109.037C84.1363 109.159 83.882 109.273 83.6187 109.387C81.9749 110.113 80.2887 110.765 78.5602 111.343C77.198 111.781 75.7994 112.219 74.3872 112.577C66.2412 114.666 57.7263 115.052 49.4127 113.711C48.4274 113.553 47.4556 113.374 46.4884 113.168C42.9466 115.523 39.6772 117.514 37.5112 118.42L37.6883 116.963L38.424 110.866L40.1268 96.681L46.8744 90.3915L31.7036 91.5251C31.7036 91.5251 33.2974 70.2102 39.5183 65.8247C45.7392 61.4392 52.2644 57.5088 52.2644 57.5088C53.0428 58.0036 53.9004 58.3718 54.8027 58.5986C56.9604 59.1735 59.2031 59.394 61.4368 59.2508C64.0977 59.1326 66.7586 56.7472 66.8858 56.6247C66.8858 56.6247 71.0633 57.4256 74.6052 61.8506C76.3716 64.1284 77.6399 66.7282 78.3332 69.4924C79.205 72.7269 80.7534 80.2812 82.5153 89.4068C83.6686 95.2804 84.881 101.793 86.0798 108.231Z" fill="url(#paint2_linear_1_348)"/>
<path d="M89.2807 80.0494L95.756 87.363L118.528 65.5754L119.391 61.1154L123.932 57.312L121.911 63.1112V70.6656C121.911 70.6656 104.347 98.1079 99.5067 99.5216C93.8443 101.18 82.5785 89.5076 82.5785 89.5076L89.2807 80.0494Z" fill="url(#paint3_linear_1_348)"/>
<path d="M65.6412 90.0503L70.9222 102.305L77.747 99.4779L72.7431 87.4855L65.6412 90.0503Z" fill="#7E57C2"/>
<path d="M72.9972 97.9678C72.1481 98.6418 70.8812 98.4843 69.3101 98.563C67.1993 98.6166 65.1748 99.3817 63.5887 100.725C61.4772 102.436 55.5741 106.914 49.6711 111.002C48.5994 111.741 47.5278 112.472 46.4925 113.19C42.9507 115.545 39.6813 117.536 37.5153 118.442C36.9459 118.715 36.331 118.888 35.699 118.954C32.6657 119.029 32.0164 112.901 31.8302 108.012C31.7712 106.389 31.7575 104.905 31.7258 103.833C31.5986 99.5434 31.7258 91.5777 31.7258 91.5777L46.8966 90.4398L45.2892 100.568L45.0076 102.358V102.371L49.5485 100.751L49.6892 100.703L65.8091 94.9303L66.9216 93.079L67.63 94.8297H67.6981L74.6001 93.9543C74.6001 93.9543 74.7182 96.6066 72.9972 97.9678Z" fill="url(#paint4_linear_1_348)"/>
<path d="M69.5141 34.0932C69.1191 33.0515 68.7785 32.3425 68.6786 32.1324V32.0799C68.6786 32.0799 68.329 32.9115 65.6953 32.7101C63.0616 32.5088 62.1898 31.2483 62.1898 31.2483C62.1898 31.2483 63.0162 33.9794 59.8785 35.148C56.8589 36.2772 55.6692 35.5463 55.5875 35.4938C55.7464 35.6601 58.1076 38.0936 56.541 40.0237C54.92 42.0239 51.2737 41.63 51.2737 41.63V41.6563C51.7326 42.6579 52.2464 43.6353 52.813 44.5843C53.1127 45.0833 53.4079 45.5428 53.7212 45.9718V46.0024C54.5253 47.2633 55.6112 48.3354 56.8998 49.1405C56.3334 52.3435 54.707 55.2838 52.2636 57.5221C53.0856 57.9355 53.9333 58.2994 54.8019 58.6119C56.4956 59.229 58.7706 59.8418 60.8003 59.6711C63.1522 59.4287 65.3254 58.3486 66.8941 56.6423L65.8542 52.7951L64.9188 49.3287C73.3738 47.2498 71.0489 38.2074 69.5141 34.0932ZM64.4466 49.4557L64.5964 49.4207L64.8371 49.355C64.4869 49.501 64.1169 49.5983 63.7382 49.6439C63.9335 49.5957 64.1333 49.5432 64.3422 49.4819L64.4466 49.4557Z" fill="url(#paint5_linear_1_348)"/>
<path d="M74.6041 31.9661C71.1168 35.0562 69.6093 34.1852 69.5139 34.102V34.0933C69.1188 33.0516 68.7783 32.3425 68.6829 32.1325L68.6602 32.0799C68.6602 32.0799 68.306 32.9115 65.6724 32.7102C63.0387 32.5089 62.1714 31.2484 62.1714 31.2484C62.1714 31.2484 62.9978 33.9795 59.8601 35.1481C56.8359 36.2773 55.6462 35.5464 55.5691 35.4938C55.728 35.6558 58.0892 38.0893 56.5226 40.0194C54.9015 42.0196 51.2553 41.6301 51.2553 41.6301V41.652C51.714 42.6551 52.2278 43.6339 52.7946 44.5844C53.0973 45.0804 53.4001 45.5429 53.7028 45.9718V46.0025C53.7028 46.0025 52.4586 48.3615 50.2381 48.3134C48.0177 48.2653 47.9677 46.125 47.9677 46.125C47.9677 46.125 46.3966 48.8561 41.5425 46.2257C36.6883 43.5952 39.9259 39.7831 39.9259 39.7831C39.9259 39.7831 36.484 37.2445 36.484 33.4411C36.484 29.6377 41.8422 26.7446 41.8422 26.7446C41.8422 26.7446 39.9259 22.3285 43.159 19.895C46.3921 17.4615 51.2507 19.1115 51.2507 19.1115C51.2507 19.1115 51.1554 13.4611 56.1049 13.5531C61.0544 13.645 62.1759 16.5643 62.1759 16.5643C62.1759 16.5643 66.6259 13.2467 71.0305 16.3717C75.4351 19.4967 73.6233 24.9458 73.6233 24.9458C73.6233 24.9458 78.2413 28.7492 74.6041 31.9661Z" fill="url(#paint6_linear_1_348)"/>
<path opacity="0.15" d="M65.8905 52.782C63.7791 52.1386 60.0238 49.6832 60.0238 49.6832C61.5058 49.8342 63.0032 49.7573 64.4602 49.4556L64.61 49.4206L64.9006 49.3375H64.9415L65.8905 52.782Z" fill="black"/>
<path opacity="0.15" d="M48.9218 77.3007L46.8739 90.431L45.2665 100.559L41.5248 103.557L49.6665 100.708C49.6665 100.708 47.555 94.8954 48.9218 77.3007Z" fill="black"/>
<path opacity="0.15" d="M46.4792 113.168C47.4464 113.374 48.4181 113.554 49.4035 113.711C49.4534 112.814 49.5442 111.908 49.6714 111.002L46.4792 113.168Z" fill="black"/>
<defs>
<linearGradient id="paint0_linear_1_348" x1="59.4166" y1="7.13176" x2="57.5456" y2="118.991" gradientUnits="userSpaceOnUse">
<stop stop-color="white" stop-opacity="0"/>
<stop offset="1" stop-color="#64B5F6" stop-opacity="0.6"/>
</linearGradient>
<linearGradient id="paint1_linear_1_348" x1="70.1589" y1="58.0737" x2="85.507" y2="86.0542" gradientUnits="userSpaceOnUse">
<stop stop-color="#E57373"/>
<stop offset="1" stop-color="#AD1457"/>
</linearGradient>
<linearGradient id="paint2_linear_1_348" x1="24859.9" y1="34126.4" x2="23262.2" y2="42307.2" gradientUnits="userSpaceOnUse">
<stop stop-color="#E57373"/>
<stop offset="1" stop-color="#AD1457"/>
</linearGradient>
<linearGradient id="paint3_linear_1_348" x1="130.094" y1="68.1883" x2="86.926" y2="94.1333" gradientUnits="userSpaceOnUse">
<stop stop-color="#FFF8E1"/>
<stop offset="1" stop-color="#FFCC80"/>
</linearGradient>
<linearGradient id="paint4_linear_1_348" x1="19116.5" y1="19114.7" x2="16797.7" y2="17492.6" gradientUnits="userSpaceOnUse">
<stop stop-color="#FFF8E1"/>
<stop offset="1" stop-color="#FFCC80"/>
</linearGradient>
<linearGradient id="paint5_linear_1_348" x1="73.9596" y1="38.5503" x2="50.2385" y2="48.6853" gradientUnits="userSpaceOnUse">
<stop stop-color="#FFF8E1"/>
<stop offset="1" stop-color="#FFCC80"/>
</linearGradient>
<linearGradient id="paint6_linear_1_348" x1="68.4559" y1="13.3867" x2="41.7045" y2="50.8875" gradientUnits="userSpaceOnUse">
<stop stop-color="#FFB74D"/>
<stop offset="1" stop-color="#F4511E"/>
</linearGradient>
</defs>
</svg>
