<svg width="171" height="114" viewBox="0 0 171 114" fill="none" xmlns="http://www.w3.org/2000/svg">
<path d="M170.769 57.2799C170.763 67.6302 167.838 77.7792 162.313 86.6147C156.789 95.4502 148.88 102.631 139.451 107.371C138.899 107.653 138.338 107.923 137.773 108.183C137.519 108.305 137.27 108.418 137.012 108.531C135.4 109.252 133.747 109.899 132.053 110.472C130.718 110.929 129.347 111.341 127.963 111.697C114.888 115.095 101.007 113.917 88.7308 108.366C88.2278 108.136 87.7249 107.901 87.2308 107.658C78.0394 103.171 70.2423 96.3707 64.6451 87.9594C59.048 79.5481 55.8538 69.8308 55.3926 59.8117C54.9314 49.7926 57.2199 39.8351 62.0216 30.9679C66.8234 22.1007 73.9643 14.6455 82.7064 9.37256C91.4486 4.09965 101.475 1.20029 111.749 0.974053C122.024 0.747813 132.174 3.2029 141.151 8.08564C150.128 12.9684 157.606 20.1017 162.813 28.7485C168.02 37.3953 170.766 47.242 170.769 57.2712V57.2799Z" fill="url(#paint0_linear_1_310)"/>
<path d="M90.4267 92.0466L84.0527 82.3299C84.0527 82.3299 101.71 62.4098 103.477 61.2327C103.477 61.2327 94.5706 75.8144 90.4267 92.0466Z" fill="url(#paint1_linear_1_310)"/>
<path d="M84.0528 82.33L72.0349 92.7548L49.9264 82.33L33.0123 83.2334C33.0123 83.2334 43.548 86.7084 46.5124 86.565L49.4813 86.4217C49.4813 86.4217 67.6372 103.505 71.8123 104.808C75.9874 106.112 89.7012 95.8952 89.7012 95.8952L90.4979 92.0771L84.0528 82.33Z" fill="url(#paint2_linear_1_310)"/>
<path d="M117.213 58.8741C115.543 59.6632 113.747 60.1685 111.903 60.3683C109.771 60.681 106.531 59.5256 106.531 59.5256C108.979 57.6448 108.409 53.2099 108.409 53.2099L108.462 53.1839C111.075 52.9884 113.261 51.542 114.787 50.1433C114.235 53.9397 117.213 58.8741 117.213 58.8741Z" fill="url(#paint3_linear_1_310)"/>
<path d="M117.213 44.7485V47.3547C116.517 48.3672 115.705 49.2985 114.792 50.1303C113.265 51.5333 111.08 52.9798 108.467 53.1709C107.28 53.2594 106.088 53.0888 104.977 52.6714C97.8555 50.0652 102.863 36.274 102.863 36.274C105.124 30.662 115.362 33.3768 115.362 33.3768C116.732 34.9709 116.995 39.4232 116.942 39.8575C116.714 40.4678 116.415 41.0507 116.051 41.595C116.051 41.595 117.997 39.8054 118.664 40.9956C119.332 42.1858 117.213 44.7485 117.213 44.7485Z" fill="url(#paint4_linear_1_310)"/>
<path d="M117.213 47.3634V44.7572C117.213 44.7572 119.328 42.2161 118.66 41.0173C117.992 39.8184 116.047 41.6167 116.047 41.6167C116.41 41.0724 116.709 40.4895 116.937 39.8793C116.991 39.4449 116.768 35.2446 115.357 33.3985C115.357 33.3985 105.12 30.6837 102.859 36.2957C102.859 36.2957 99.9297 35.5703 97.406 32.1692C93.2798 26.605 98.2072 25.923 103.09 26.9959C109.014 28.299 114.952 24.0249 121.74 28.3685C128.528 32.7122 122.443 42.5854 117.213 47.3634Z" fill="#262F72"/>
<g filter="url(#filter0_d_1_310)">
<path d="M70.6194 23.1127H12.8668C11.4705 23.1127 10.3386 24.2173 10.3386 25.5799V77.5475C10.3386 78.9101 11.4705 80.0147 12.8668 80.0147H70.6194C72.0157 80.0147 73.1476 78.9101 73.1476 77.5475V25.5799C73.1476 24.2173 72.0157 23.1127 70.6194 23.1127Z" fill="white"/>
</g>
<path d="M19.9574 33.4246C19.797 33.6016 19.5911 33.7336 19.3609 33.8068C19.0862 33.8998 18.797 33.9454 18.5063 33.9415C18.2046 33.9482 17.9065 33.8762 17.6428 33.733C17.393 33.5914 17.1928 33.3794 17.0686 33.1249C16.9272 32.8316 16.8556 32.5108 16.8594 32.1866V31.9347C16.8513 31.605 16.9166 31.2775 17.0508 30.9748C17.1661 30.718 17.3586 30.5014 17.6028 30.3536C17.8982 30.1975 18.232 30.1242 18.5675 30.1419C18.9029 30.1595 19.2268 30.2673 19.5033 30.4535C19.7688 30.6904 19.9286 31.0195 19.9484 31.37H19.1873C19.1701 31.193 19.0879 31.0279 18.9559 30.9053C18.8159 30.8006 18.6423 30.7482 18.4662 30.7576C18.3476 30.7511 18.2292 30.7744 18.1224 30.8254C18.0157 30.8764 17.9241 30.9532 17.8564 31.0486C17.7002 31.3116 17.6275 31.6139 17.6473 31.9173V32.1519C17.628 32.4575 17.7073 32.7613 17.8743 33.0206C17.9513 33.1197 18.052 33.1988 18.1676 33.2511C18.2832 33.3034 18.4102 33.3271 18.5375 33.3203C18.7628 33.3396 18.9872 33.2743 19.1651 33.1379V32.4994H18.4529V31.939H19.9484L19.9574 33.4246Z" fill="#64B5F6"/>
<path d="M65.7232 30.1364H24.8001C24.3011 30.1364 23.8965 30.5311 23.8965 31.0181V34.2238C23.8965 34.7107 24.3011 35.1055 24.8001 35.1055H65.7232C66.2223 35.1055 66.6268 34.7107 66.6268 34.2238V31.0181C66.6268 30.5311 66.2223 30.1364 65.7232 30.1364Z" fill="#E7EEF2"/>
<path d="M66.6268 37.9115H23.8965V38.7802H66.6268V37.9115Z" fill="#BBDEFB"/>
<path d="M66.6268 39.8662H23.8965V40.735H66.6268V39.8662Z" fill="#E7E8E9"/>
<path d="M66.6268 41.8208H23.8965V42.6895H66.6268V41.8208Z" fill="#E7E8E9"/>
<path d="M66.6268 43.7755H23.8965V44.6442H66.6268V43.7755Z" fill="#E7E8E9"/>
<path d="M66.6268 47.4329H23.8965V48.3016H66.6268V47.4329Z" fill="#BBDEFB"/>
<path d="M66.6268 49.3876H23.8965V50.2563H66.6268V49.3876Z" fill="#E7E8E9"/>
<path d="M66.6268 51.3422H23.8965V52.2109H66.6268V51.3422Z" fill="#E7E8E9"/>
<path d="M66.6268 53.2969H23.8965V54.1656H66.6268V53.2969Z" fill="#E7E8E9"/>
<path d="M66.6268 56.8456H23.8965V57.7143H66.6268V56.8456Z" fill="#BBDEFB"/>
<path d="M66.6268 58.8003H23.8965V59.669H66.6268V58.8003Z" fill="#E7E8E9"/>
<path d="M66.6268 60.7549H23.8965V61.6236H66.6268V60.7549Z" fill="#E7E8E9"/>
<path d="M66.6268 62.7096H23.8965V63.5783H66.6268V62.7096Z" fill="#E7E8E9"/>
<path d="M66.6268 66.2583H23.8965V67.127H66.6268V66.2583Z" fill="#BBDEFB"/>
<path d="M66.6268 68.2129H23.8965V69.0816H66.6268V68.2129Z" fill="#E7E8E9"/>
<path d="M66.6268 70.1676H23.8965V71.0363H66.6268V70.1676Z" fill="#E7E8E9"/>
<path d="M66.6268 72.1223H23.8965V72.9911H66.6268V72.1223Z" fill="#E7E8E9"/>
<path d="M132.61 79.8583C135.654 88.702 137.911 98.94 139.451 107.371C138.899 107.653 138.338 107.923 137.773 108.183C137.519 108.305 137.27 108.418 137.012 108.531C135.4 109.252 133.748 109.899 132.053 110.472C130.718 110.929 129.347 111.341 127.963 111.697C114.888 115.095 101.007 113.917 88.7308 108.366C88.2279 108.136 87.7249 107.901 87.2308 107.658C88.121 103.197 89.1804 97.954 90.4222 92.051C90.8733 89.911 91.3466 87.6841 91.8421 85.3704C94.3926 73.5165 98.0514 67.0619 101.074 63.5652L101.105 63.5305C101.679 62.8657 102.301 62.2415 102.965 61.6627C102.984 61.6416 103.005 61.6227 103.028 61.6062C103.179 61.4759 103.33 61.3543 103.473 61.237C105.293 59.7906 106.531 59.5256 106.531 59.5256L106.642 59.5647H106.704C107.671 59.9368 108.684 60.1807 109.718 60.2901H109.891H109.918C110.578 60.3517 111.242 60.3619 111.903 60.3205H111.943C113.78 60.2062 115.57 59.7022 117.187 58.8436C119.083 59.4556 120.868 60.3541 122.479 61.5063C127.081 64.8031 136.353 76.8916 136.353 76.8916L132.61 79.8583Z" fill="url(#paint5_linear_1_310)"/>
<path d="M149.564 96.3642C149.537 97.5718 148.411 100.022 146.764 102.993C144.44 104.629 141.994 106.092 139.446 107.371C138.894 107.653 138.334 107.923 137.768 108.183C137.515 108.305 137.265 108.418 137.007 108.531C135.396 109.252 133.743 109.899 132.049 110.472L136.348 97.0983L125.221 85.6962L132.605 79.8583L136.348 76.9003C136.348 76.9003 149.679 91.6948 149.564 96.3642Z" fill="url(#paint6_linear_1_310)"/>
<defs>
<filter id="filter0_d_1_310" x="0.338562" y="17.1127" width="82.8091" height="76.9021" filterUnits="userSpaceOnUse" color-interpolation-filters="sRGB">
<feFlood flood-opacity="0" result="BackgroundImageFix"/>
<feColorMatrix in="SourceAlpha" type="matrix" values="0 0 0 0 0 0 0 0 0 0 0 0 0 0 0 0 0 0 127 0" result="hardAlpha"/>
<feOffset dy="4"/>
<feGaussianBlur stdDeviation="5"/>
<feColorMatrix type="matrix" values="0 0 0 0 0 0 0 0 0 0 0 0 0 0 0 0 0 0 0.15 0"/>
<feBlend mode="normal" in2="BackgroundImageFix" result="effect1_dropShadow_1_310"/>
<feBlend mode="normal" in="SourceGraphic" in2="effect1_dropShadow_1_310" result="shape"/>
</filter>
<linearGradient id="paint0_linear_1_310" x1="113.288" y1="7.07612" x2="111.408" y2="118.093" gradientUnits="userSpaceOnUse">
<stop stop-color="white" stop-opacity="0"/>
<stop offset="1" stop-color="#64B5F6" stop-opacity="0.6"/>
</linearGradient>
<linearGradient id="paint1_linear_1_310" x1="95.1671" y1="59.1651" x2="91.9862" y2="89.2616" gradientUnits="userSpaceOnUse">
<stop stop-color="#42A5F5"/>
<stop offset="1" stop-color="#1565C0"/>
</linearGradient>
<linearGradient id="paint2_linear_1_310" x1="56.6475" y1="90.8349" x2="93.5595" y2="95.8478" gradientUnits="userSpaceOnUse">
<stop stop-color="#FFE082"/>
<stop offset="1" stop-color="#FFA726"/>
</linearGradient>
<linearGradient id="paint3_linear_1_310" x1="8303.36" y1="2172.28" x2="8305.84" y2="1976.98" gradientUnits="userSpaceOnUse">
<stop stop-color="#FFE082"/>
<stop offset="1" stop-color="#FFA726"/>
</linearGradient>
<linearGradient id="paint4_linear_1_310" x1="13213" y1="3478.99" x2="13912.1" y2="3478.99" gradientUnits="userSpaceOnUse">
<stop stop-color="#FFE082"/>
<stop offset="1" stop-color="#FFA726"/>
</linearGradient>
<linearGradient id="paint5_linear_1_310" x1="37861.1" y1="12889.4" x2="42898.8" y2="17891.3" gradientUnits="userSpaceOnUse">
<stop stop-color="#42A5F5"/>
<stop offset="1" stop-color="#1565C0"/>
</linearGradient>
<linearGradient id="paint6_linear_1_310" x1="20284.9" y1="10467.8" x2="19951.2" y2="8315.25" gradientUnits="userSpaceOnUse">
<stop stop-color="#FFE082"/>
<stop offset="1" stop-color="#FFA726"/>
</linearGradient>
</defs>
</svg>
